<svg width="18" height="18" fill="none" xmlns="http://www.w3.org/2000/svg"><g clip-path="url(#clip0_2018_822)"><g clip-path="url(#clip1_2018_822)" fill="#BED732"><path d="M5.397.009v4.69c0 .801.493 1.298 1.294 1.302h4.605c.801 0 1.298-.496 1.298-1.298V.02c.454 0 .9-.012 1.345.009.116.004.244.116.338.206 1.166 1.156 2.322 2.321 3.487 3.478a.74.74 0 01.232.553c-.005 3.962 0 7.924-.005 11.887 0 1.062-.78 1.833-1.846 1.837-.377.005-.754 0-1.152 0v-5.26c0-1.19-.745-1.94-1.94-1.94H4.934c-1.191.004-1.936.753-1.936 1.949v5.256c-.613-.035-1.217.09-1.808-.112C.518 17.657.043 17.011.004 16.3 0 16.235 0 16.171 0 16.107V1.885C0 .9.591.188 1.542.02 1.628.01 1.713 0 1.8 0h3.448c.043 0 .082.004.15.009z"/><path d="M13.793 17.987H4.198v-5.261c0-.505.223-.728.728-.728h8.135c.51 0 .732.223.732.729v5.26zM11.382 4.79H6.61V.016h4.772V4.79z"/></g></g><defs><clipPath id="clip0_2018_822"><path fill="#fff" d="M0 0h18v17.509H0z"/></clipPath><clipPath id="clip1_2018_822"><path fill="#fff" d="M0 0h17.996v18H0z"/></clipPath></defs></svg>