<svg width="20" height="20" fill="none" xmlns="http://www.w3.org/2000/svg"><g clip-path="url(#clip0_2013_368)"><g clip-path="url(#clip1_2013_368)" fill="#000"><path d="M14.952 15.31c0 1.026.027 2.052-.009 3.079-.027.866-.781 1.566-1.651 1.607-.09.004-.179.004-.268.004H1.937C.72 19.995 0 19.281 0 18.076V1.92C0 .723.719 0 1.915 0h11.131c1.187 0 1.906.714 1.906 1.901 0 1.504-.004 3.004.005 4.508a.696.696 0 01-.224.545 783.566 783.566 0 00-4.717 4.718 2.16 2.16 0 00-.42.598c-.513 1.07-1.013 2.15-1.513 3.231a1.773 1.773 0 00.344 2.004c.522.522 1.316.66 2.004.344 1.084-.505 2.178-.996 3.249-1.527.299-.147.549-.401.803-.62.148-.13.268-.29.402-.438a.35.35 0 01.067.045zM7.498 4.953h4.285c.237 0 .442-.058.576-.268a.559.559 0 00.022-.593c-.125-.228-.33-.304-.576-.304h-8.61c-.044 0-.089 0-.133.005a.578.578 0 00-.487.754c.09.268.29.406.62.406 1.433.005 2.87 0 4.303 0zm-.933 1.964h-3.37c-.258 0-.468.08-.588.321-.21.411.084.844.58.844h4.95c.611 0 1.218.004 1.83 0 .392-.004.66-.303.602-.665-.049-.308-.281-.495-.638-.495-1.12-.005-2.24-.005-3.365-.005zm-.919 3.124H3.214c-.416 0-.67.224-.67.58 0 .358.259.58.67.58h4.815c.416 0 .67-.222.67-.58 0-.356-.259-.58-.67-.58H5.646z"/><path d="M17.805 10.698c-.715.732-1.429 1.482-2.152 2.214-.692.696-1.392 1.384-2.098 2.067a1.99 1.99 0 01-.504.357c-1.004.477-2.017.946-3.03 1.415-.326.147-.576.125-.764-.076-.218-.237-.196-.491-.067-.763.491-1.05.973-2.107 1.482-3.147.112-.223.317-.41.496-.594 1.325-1.334 2.66-2.66 3.99-3.99a.713.713 0 01.071-.062c.87.87 1.736 1.736 2.576 2.58zm-1.639-3.436c.317-.34.634-.741 1.013-1.067.41-.353 1.058-.286 1.455.09a28.5 28.5 0 011.058 1.057c.393.415.41 1.107.027 1.53-.313.35-.652.67-.969.992-.879-.888-1.75-1.763-2.584-2.602z"/></g></g><defs><clipPath id="clip0_2013_368"><path fill="#fff" d="M0 0h20v20H0z"/></clipPath><clipPath id="clip1_2013_368"><path fill="#fff" d="M0 0h20v19.995H0z"/></clipPath></defs></svg>