<svg width="20" height="20" fill="none" xmlns="http://www.w3.org/2000/svg"><g clip-path="url(#clip0_2013_395)"><g clip-path="url(#clip1_2013_395)" fill="#000"><path d="M7.12 1.705c.067.032.108.054.152.072.661.295 1.023.795 1.063 1.518.004.102.004.21.004.312v11.92c0 .303 0 .303.3.303h2.098c.616-.004.937-.325.937-.937 0-1.058-.004-2.112.005-3.17.004-.558.401-.933.915-.884.366.036.67.313.727.679.014.094.018.192.018.29 0 1.027.005 2.054 0 3.08-.004 1.554-1.071 2.617-2.63 2.617H8.34c0 .294.01.567 0 .839-.035.986-.79 1.705-1.754 1.656a2.13 2.13 0 01-.522-.107c-1.643-.545-3.282-1.085-4.916-1.634A1.666 1.666 0 010 16.665V1.688C0 .683.844-.01 1.777 0c3.013.027 6.027 0 9.04.005a2.493 2.493 0 012.513 2.437c.005.848.014 1.696 0 2.545-.009.576-.477.942-1.022.826-.375-.08-.634-.407-.638-.835-.01-.527 0-1.058-.005-1.585 0-.3.005-.594-.004-.893-.014-.473-.33-.817-.8-.821-1.218-.014-2.441-.005-3.66-.005-.018 0-.036.014-.08.031z"/><path d="M15 9.17h-3.267c-.46 0-.804-.268-.884-.665-.103-.532.28-.996.835-1 1.004-.005 2.008 0 3.013 0H15v-.241c0-.724.004-1.442 0-2.166 0-.393.138-.705.513-.857.37-.152.692-.049.973.232 1.08 1.085 2.17 2.166 3.25 3.25.357.357.362.862.005 1.215a762.37 762.37 0 01-3.3 3.299c-.259.259-.571.339-.92.2-.33-.129-.517-.423-.521-.807-.005-.728 0-1.46 0-2.188V9.17z"/></g></g><defs><clipPath id="clip0_2013_395"><path fill="#fff" d="M0 0h20v20H0z"/></clipPath><clipPath id="clip1_2013_395"><path fill="#fff" d="M0 0h20.005v20H0z"/></clipPath></defs></svg>