<svg width="20" height="20" fill="none" xmlns="http://www.w3.org/2000/svg"><g clip-path="url(#clip0_2013_382)"><g clip-path="url(#clip1_2013_382)" fill="#000"><path d="M9.985 20c-.246 0-.491.004-.737 0a1.243 1.243 0 01-1.223-.95 22.444 22.444 0 01-.267-1.08c-.032-.13-.094-.193-.22-.242-.428-.165-.847-.353-1.276-.518a.371.371 0 00-.276.014c-.33.183-.652.384-.982.576-.496.29-1.067.24-1.487-.152a23.34 23.34 0 01-1.151-1.152c-.397-.424-.442-.995-.143-1.504.187-.321.388-.634.567-.96a.37.37 0 00.013-.276c-.17-.438-.348-.87-.535-1.295-.036-.08-.12-.17-.201-.191a19.867 19.867 0 00-1.013-.26c-.67-.16-1.04-.629-1.04-1.312 0-.477-.005-.95 0-1.428.004-.611.37-1.084.964-1.24.357-.094.723-.175 1.08-.277a.387.387 0 00.219-.201c.192-.429.366-.862.535-1.295A.345.345 0 002.803 6c-.183-.33-.388-.652-.58-.978-.308-.518-.259-1.093.143-1.517.366-.389.745-.768 1.134-1.134.424-.402 1-.455 1.504-.156.325.192.647.397.982.576a.37.37 0 00.276.008c.424-.165.835-.352 1.259-.513.134-.049.205-.111.237-.254.07-.326.16-.647.24-.973C8.165.37 8.624.004 9.325.004c.469 0 .937-.004 1.406 0 .625.005 1.094.366 1.254.973.094.353.183.706.264 1.063.03.13.093.192.218.24.429.166.848.353 1.281.518a.37.37 0 00.277-.008c.326-.179.643-.375.96-.567.517-.304 1.089-.255 1.522.151.383.362.758.737 1.12 1.12.41.434.464 1.005.16 1.523-.191.326-.392.647-.58.977a.31.31 0 00-.013.237c.174.442.352.883.544 1.316a.39.39 0 00.206.192c.334.099.674.174 1.013.26.683.169 1.04.628 1.044 1.334v1.383c-.004.639-.366 1.107-.982 1.268-.357.094-.723.174-1.08.277a.334.334 0 00-.192.174 44.08 44.08 0 00-.553 1.339.311.311 0 00.018.236c.187.33.388.652.58.978.295.504.245 1.08-.152 1.504-.366.388-.745.767-1.133 1.138-.425.402-1.005.45-1.505.156-.325-.192-.647-.393-.977-.58a.326.326 0 00-.259-.013c-.442.17-.884.352-1.317.544a.342.342 0 00-.178.192c-.098.335-.179.674-.259 1.013-.165.683-.625 1.049-1.326 1.053-.24.005-.468.005-.7.005zM4.379 9.98c-.005 3.097 2.5 5.628 5.579 5.641a5.633 5.633 0 005.664-5.628c.004-3.084-2.518-5.615-5.606-5.619-3.107 0-5.633 2.508-5.637 5.606z"/><path d="M5.624 10.007c-.004-2.41 1.96-4.383 4.36-4.383a4.38 4.38 0 014.388 4.378c.005 2.384-1.96 4.365-4.33 4.37-2.45.004-4.414-1.937-4.418-4.365zm3.75.37c-.278-.281-.527-.544-.79-.799-.264-.254-.64-.254-.885-.018-.25.246-.254.63.01.902.401.41.803.817 1.213 1.214.273.268.625.272.898.005.83-.822 1.655-1.647 2.477-2.478a.6.6 0 00.178-.549.6.6 0 00-.433-.49c-.254-.076-.468.004-.651.182-.665.67-1.33 1.34-2.018 2.031z"/></g></g><defs><clipPath id="clip0_2013_382"><path fill="#fff" d="M0 0h20v20H0z"/></clipPath><clipPath id="clip1_2013_382"><path fill="#fff" d="M0 0h20v20H0z"/></clipPath></defs></svg>