<svg width="20" height="20" fill="none" xmlns="http://www.w3.org/2000/svg"><g clip-path="url(#clip0_2013_356)"><g clip-path="url(#clip1_2013_356)"><path d="M10 19.99c-1.49 0-2.986.015-4.477-.004-1.125-.014-2.199-.267-3.165-.877-1.312-.83-1.997-2.072-2.245-3.572a8.723 8.723 0 01-.108-1.397C-.005 11.374 0 8.608 0 5.842c0-.957.127-1.885.507-2.767C1.224 1.435 2.508.506 4.234.16A7.852 7.852 0 015.673.01C8.58-.005 11.486 0 14.393.005c.99 0 1.941.187 2.827.642 1.566.797 2.377 2.133 2.668 3.82.065.39.103.793.103 1.187.01 2.93.01 5.86 0 8.79-.005 1.036-.22 2.035-.732 2.945-.815 1.467-2.119 2.231-3.736 2.494-.474.08-.961.103-1.444.108-1.36.014-2.72.004-4.079.004v-.004zm2.944-12.376h2.55c.479 0 .817-.314.817-.746 0-.431-.343-.75-.816-.75a926.303 926.303 0 00-5.106 0c-.492 0-.83.319-.82.764.005.436.337.732.825.732h2.55zm-.014 7.004c.858 0 1.716.005 2.574 0 .464-.005.797-.31.807-.736.009-.431-.324-.755-.802-.76a627.788 627.788 0 00-5.152.005.954.954 0 00-.422.108.723.723 0 00-.347.82c.08.329.384.558.769.563.857.005 1.715 0 2.573 0zM5.19 6.629c-.098-.131-.145-.215-.21-.276-.324-.305-.774-.305-1.07-.005-.305.305-.295.736.019 1.064.239.249.483.488.727.727.3.295.731.323 1.031.028.778-.755 1.542-1.524 2.302-2.302a.733.733 0 00-.028-1.036.737.737 0 00-1.036 0c-.46.445-.91.9-1.36 1.355-.122.122-.22.262-.375.445zm-.019 6.957c-.084-.103-.14-.187-.215-.257a.756.756 0 00-1.055.023c-.29.3-.286.732.019 1.05.234.244.473.478.712.713.342.337.774.337 1.12 0 .3-.296.596-.595.896-.896.436-.436.877-.867 1.308-1.308.408-.421.258-1.083-.281-1.247-.3-.093-.567-.018-.792.207-.558.562-1.121 1.12-1.712 1.715z" fill="#000"/></g></g><defs><clipPath id="clip0_2013_356"><path fill="#fff" d="M0 0h20v20H0z"/></clipPath><clipPath id="clip1_2013_356"><path fill="#fff" d="M0 0h19.995v20H0z"/></clipPath></defs></svg>