<svg width="180" height="180" fill="none" xmlns="http://www.w3.org/2000/svg"><path d="M129.349 151.135L96.284 54.643a1.691 1.691 0 00-1.6-1.143h-3.498c-.693 0-1.315.422-1.572 1.066L51.598 150.07a1.691 1.691 0 01-1.572 1.065h-5.83" stroke="#D4D4D4" stroke-width="5.074" stroke-linecap="round"/><path d="M54.908 144.728l55.724-43.642m16.085 42.784l-54.601-40.597m.021-2.415l30.876-26.749m7.848 25.312L81.814 73.586" stroke="#D4D4D4" stroke-width="3.382" stroke-linecap="round"/><circle cx="93.041" cy="47.83" r="9.087" fill="#D4D4D4" stroke="#D4D4D4" stroke-width=".846"/><path d="M74.353 58.019a19.373 19.373 0 01-4.138-11.998c0-4.527 1.546-8.692 4.138-11.998m39.13 1.81a19.376 19.376 0 014.138 11.998c0 4.526-1.546 8.692-4.138 11.997m-48.061 9.147a37.068 37.068 0 01-7.918-22.956 37.068 37.068 0 017.918-22.956m56.992 1.807a37.071 37.071 0 017.918 22.955 37.07 37.07 0 01-7.918 22.956M52.71 76.033a47.005 47.005 0 01-10.042-29.11c0-10.983 3.75-21.09 10.041-29.11m82.418-.003a47.007 47.007 0 0110.041 29.111 47.007 47.007 0 01-10.041 29.11" stroke="#D4D4D4" stroke-width="3.382" stroke-linecap="round"/><circle cx="130.928" cy="140.295" r="20.295" fill="#272727"/><rect x="128.912" y="128.242" width="4.03" height="15.97" rx="1.691" fill="#fff"/><rect x="128.703" y="147.719" width="4.449" height="4.638" rx="2.224" fill="#fff"/></svg>