<svg width="94" height="94" fill="none" xmlns="http://www.w3.org/2000/svg"><g clip-path="url(#clip0_169_3868)" fill="#FF761B"><path d="M74.172 33.377c.367-.33.587-.532.79-.752 2.551-2.552 5.085-5.123 7.674-7.638 1.927-1.872 4.259-2.387 6.774-1.56 2.552.826 4.04 2.68 4.48 5.324.312 1.872-.165 3.58-1.322 5.085-.33.441-.734.827-1.12 1.212-5.563 5.563-11.107 11.126-16.689 16.67-.44.441-.624.882-.624 1.524.018 11.291.018 22.582.018 33.873 0 4.351-2.551 6.885-6.903 6.885H6.848C2.552 94 0 91.448 0 87.097V6.885C0 2.534 2.552 0 6.903 0h60.402c4.333 0 6.867 2.552 6.867 6.921v26.456zM21.425 3.672H6.83c-2.203 0-3.158.936-3.158 3.121v80.414c0 2.185.936 3.14 3.121 3.14h60.586c2.166 0 3.121-.955 3.121-3.14v-30.11c0-.293-.037-.569-.055-.917-.973.44-1.854.9-2.754 1.23-.716.238-.881.642-.881 1.358.018 8.482.018 16.946.018 25.428 0 1.891-.587 2.497-2.442 2.497H45.017c-.275 0-.55.018-.826-.018a1.826 1.826 0 01-1.597-1.836c0-.918.697-1.69 1.634-1.8.294-.036.606-.018.918-.018H63.12V59.613c-.092-.019-.166-.037-.202-.019-1.616.716-3.25 1.433-4.866 2.149-1.175.514-1.909.459-2.533-.22-.698-.772-.551-1.598-.147-2.48 1.505-3.34 3.03-6.682 4.461-10.06.643-1.487 1.432-2.827 2.68-3.856.496-.404.643-.88.643-1.505-.018-10.52-.018-21.058-.018-31.578v-.937H52.746c-.44 3.599-2.588 5.784-5.746 5.802-6.646.037-13.274.018-19.92 0-2.662-.018-4.865-1.836-5.49-4.425-.11-.44-.146-.9-.22-1.377h-10.3v71.896h18.525c1.175 0 1.983.808 1.965 1.854-.019 1.028-.79 1.763-1.91 1.818H9.547c-1.56 0-2.203-.68-2.203-2.259V9.602c0-1.579.66-2.258 2.221-2.258h11.86V3.672zm3.709.055v6.885c.018 1.89.716 2.607 2.589 2.607H41.29c1.873 0 3.727.018 5.6 0 1.157-.019 2.075-.716 2.093-1.763.055-2.552.018-5.122.018-7.729H25.134zm27.63 3.617h11.457c2.093 0 2.626.532 2.626 2.588V40.85c1.175-1.194 2.166-2.148 3.084-3.177.312-.348.569-.88.569-1.34V6.701c0-2.056-.991-3.03-3.048-3.03h-13.75c-.295 0-.588.02-.937.038v3.635zm12.393 40.445a834.113 834.113 0 014.058 4.076C74.649 46.431 80.12 40.941 85.48 35.6c-1.303-1.322-2.699-2.717-4.039-4.076-5.397 5.398-10.869 10.85-16.285 16.266zm23.28-14.944c1.12-.973 2.203-2.02 1.8-3.764-.294-1.212-1.066-2-2.277-2.258-1.726-.367-2.81.643-3.69 1.8 1.395 1.431 2.772 2.808 4.167 4.222zM62.917 51.13c-.789 1.78-1.56 3.507-2.423 5.453 1.965-.882 3.709-1.653 5.471-2.442-1.028-1.028-1.983-1.965-3.047-3.011z"/><path d="M16.156 29.705v-5.507c0-1.45.68-2.148 2.112-2.167 3.726-.018 7.453-.018 11.18 0 1.433 0 2.112.698 2.112 2.167v11.089c0 1.487-.698 2.166-2.203 2.166H18.359c-1.56 0-2.203-.68-2.203-2.258v-5.49zm11.677 4.04v-7.95h-7.95v7.95h7.95zm3.745 16.248v5.416c0 1.578-.66 2.258-2.203 2.258H18.378c-1.56 0-2.203-.68-2.203-2.258V44.503c0-1.615.66-2.258 2.295-2.258h10.813c1.671 0 2.295.643 2.314 2.35-.019 1.78-.019 3.58-.019 5.398zm-11.695 3.91h7.95v-7.95h-7.95v7.95zm-3.727 16.193v-5.508c0-1.468.68-2.166 2.112-2.166 3.726-.018 7.453-.018 11.18 0 1.433 0 2.13.698 2.13 2.148v11.089c0 1.505-.68 2.166-2.203 2.166H18.378c-1.56 0-2.222-.679-2.222-2.24v-5.489zm11.677 4.04v-7.987h-7.95v7.986h7.95zm18.597-6.61c.827-.863 1.616-1.744 2.46-2.589.955-.955 2.038-1.046 2.828-.257.808.79.734 1.873-.22 2.827-.845.845-1.708 1.653-2.736 2.626.991.955 1.946 1.744 2.772 2.68.386.44.735 1.175.643 1.69-.092.55-.661 1.156-1.175 1.45-.643.385-1.377.11-1.928-.44-.9-.9-1.78-1.837-2.809-2.902-.991 1.028-1.873 2.001-2.809 2.92-.68.66-1.542.734-2.276.293-.698-.422-1.065-1.267-.772-2.056.129-.386.404-.753.698-1.046.845-.845 1.726-1.634 2.754-2.59-1.028-.954-1.91-1.743-2.754-2.57-.955-.936-1.046-2.037-.294-2.827.79-.826 1.891-.734 2.901.239.79.77 1.56 1.56 2.35 2.331.037.037.11.056.367.22zm-2.166-36.278c2.13-2.13 4.205-4.223 6.298-6.316.22-.22.422-.44.66-.642.772-.662 1.8-.662 2.497-.019.735.68.808 1.744.11 2.552-.532.624-1.156 1.175-1.725 1.763-2.093 2.093-4.186 4.204-6.297 6.297-1.157 1.138-2.093 1.138-3.232.018a325.896 325.896 0 01-3.561-3.562c-.937-.954-.992-2.056-.184-2.827.79-.771 1.836-.698 2.772.22.826.808 1.653 1.634 2.479 2.442.018 0 .055 0 .183.074zm-.128 20.324c2.276-2.277 4.406-4.425 6.536-6.573 1.193-1.194 2.221-1.377 3.084-.533.9.882.734 1.91-.514 3.158-2.46 2.46-4.92 4.939-7.399 7.399-1.175 1.175-2.111 1.175-3.286.018a315.9 315.9 0 01-3.507-3.506c-.955-.973-1.028-2.038-.239-2.828.808-.807 1.873-.734 2.828.22.826.845 1.615 1.727 2.497 2.645zm-7.068 31.412c1.01 0 1.873.845 1.836 1.873-.019.973-.845 1.8-1.818 1.8a1.85 1.85 0 01-1.836-1.873c.019-.974.845-1.781 1.818-1.8z"/></g><defs><clipPath id="clip0_169_3868"><path fill="#fff" d="M0 0h94v94H0z"/></clipPath></defs></svg>