<svg width="94" height="94" fill="none" xmlns="http://www.w3.org/2000/svg"><path d="M76.062 46.02H62.667a2.959 2.959 0 01-2.938-2.937V15.706c0-2.899 1.136-5.601 3.173-7.638a10.724 10.724 0 017.638-3.172h.039c4.896.039 9.517 1.958 13.042 5.444 3.525 3.564 5.444 8.264 5.444 13.16v9.478c.04 7.794-5.209 13.043-13.003 13.043zm-10.457-5.874h10.457c4.543 0 7.168-2.624 7.168-7.168V23.5c0-3.368-1.332-6.58-3.721-9.008a12.973 12.973 0 00-8.93-3.721h-.04a4.921 4.921 0 00-3.485 1.449 4.856 4.856 0 00-1.45 3.486v24.44z" fill="#292D32"/><path d="M35.25 91.376c-1.841 0-3.564-.705-4.857-2.037l-6.502-6.54a.963.963 0 00-1.292-.079l-6.737 5.013a6.786 6.786 0 01-7.167.666 6.826 6.826 0 01-3.8-6.149V23.5c0-11.828 6.776-18.604 18.605-18.604h47a2.959 2.959 0 012.937 2.937 2.959 2.959 0 01-2.937 2.938 4.898 4.898 0 00-4.896 4.896V82.25a6.825 6.825 0 01-3.8 6.15c-2.35 1.174-5.091.94-7.167-.627l-6.697-5.014c-.392-.313-.94-.235-1.254.079l-6.58 6.58a6.94 6.94 0 01-4.856 1.958zM23.147 76.649c1.802 0 3.564.666 4.896 2.037l6.502 6.54c.235.236.548.275.705.275.156 0 .47-.04.705-.274l6.58-6.58a6.814 6.814 0 018.969-.588l6.658 4.974c.431.314.823.196 1.019.079.195-.118.548-.353.548-.862V15.667c0-1.763.43-3.447 1.175-4.896H23.5c-8.695 0-12.73 4.034-12.73 12.729v58.75c0 .548.353.783.549.9a.915.915 0 001.018-.117l6.698-5.013a6.917 6.917 0 014.112-1.37z" fill="#292D32"/><path d="M47 53.893H35.25a2.959 2.959 0 01-2.938-2.937 2.959 2.959 0 012.938-2.938H47a2.959 2.959 0 012.938 2.938A2.959 2.959 0 0147 53.893zm0-15.666H35.25a2.959 2.959 0 01-2.938-2.938 2.959 2.959 0 012.938-2.937H47a2.959 2.959 0 012.938 2.937A2.959 2.959 0 0147 38.227zm-23.616.979a3.928 3.928 0 01-3.917-3.917 3.928 3.928 0 013.917-3.916 3.928 3.928 0 013.916 3.916 3.928 3.928 0 01-3.916 3.917zm0 15.667a3.928 3.928 0 01-3.917-3.917 3.928 3.928 0 013.917-3.917 3.928 3.928 0 013.916 3.917 3.928 3.928 0 01-3.916 3.916z" fill="#292D32"/></svg>