<svg width="36" height="36" fill="none" xmlns="http://www.w3.org/2000/svg"><g clip-path="url(#clip0_2013_347)"><path d="M12.643 28.224l-5.37 2.93a4.827 4.827 0 00-.863.613A17.917 17.917 0 0018 36c4.384 0 8.4-1.57 11.523-4.173a4.77 4.77 0 00-.947-.635l-5.751-2.875a2.193 2.193 0 01-1.213-1.962V24.1a8.68 8.68 0 00.544-.7 13.234 13.234 0 001.788-3.602 1.806 1.806 0 001.281-1.719V15.67c0-.53-.236-1.003-.602-1.334v-3.482s.716-5.418-6.622-5.418-6.623 5.418-6.623 5.418v3.482a1.796 1.796 0 00-.602 1.334v2.409c0 .634.334 1.193.833 1.515.602 2.62 2.178 4.506 2.178 4.506v2.2c0 .802-.44 1.54-1.144 1.925z" fill="#E7ECED"/><path d="M18.308.003C8.368-.167.172 7.753.003 17.693c-.097 5.635 2.415 10.7 6.414 14.069.262-.229.543-.438.854-.608l5.371-2.93a2.194 2.194 0 001.143-1.925v-2.2s-1.576-1.886-2.177-4.506a1.806 1.806 0 01-.833-1.516V15.67c0-.53.236-1.004.602-1.335v-3.482s-.716-5.418 6.622-5.418 6.623 5.418 6.623 5.418v3.482c.367.332.602.805.602 1.335v2.408c0 .81-.544 1.491-1.281 1.719a13.235 13.235 0 01-1.788 3.603 9.147 9.147 0 01-.544.7v2.256c0 .83.47 1.59 1.212 1.961l5.752 2.876c.345.172.656.39.944.633 3.878-3.235 6.384-8.071 6.477-13.517C36.167 8.368 28.248.172 18.308.003z" fill="#556080"/></g><defs><clipPath id="clip0_2013_347"><path fill="#fff" d="M0 0h36v36H0z"/></clipPath></defs></svg>