<svg width="40" height="41" fill="none" xmlns="http://www.w3.org/2000/svg"><g clip-path="url(#clip0_73_11387)" filter="url(#filter0_i_73_11387)"><path fill="#E6E6E6" d="M0 .5h40v40H0z"/><g clip-path="url(#clip1_73_11387)"><rect x="12" y="6.675" width="32.176" height="22.983" rx="3.133" fill="#fff"/><path transform="matrix(.9742 .22567 -.2146 .9767 20.768 3.372)" fill="url(#paint0_linear_73_11387)" fill-opacity=".92" d="M0 0h14.418v34.21H0z"/><g clip-path="url(#clip2_73_11387)"><path d="M18.434 17.372a4.004 4.004 0 004.008-4c0-2.21-1.795-4-4.008-4a4.004 4.004 0 00-4.008 4c0 2.21 1.794 4 4.008 4z" fill="#BED732"/><path d="M23.982 10.742h-6.131l-1.464 5.27h1.641l.345-1.24 5.315-.01c1.607 0 2.21-.662 2.498-2.007.41-1.906-1.11-2.013-2.204-2.013zm.725 1.988c-.157.617-.532.718-.973.718h-5.098l.355-1.38h4.996c.634 0 .877.045.72.662zm4.013-1.988v4.729c0 .08-.051.566-1.095.566s-1.094-.49-1.094-.566v-4.729h.983v4.486c0 .066.05.116.116.116s.117-.05.117-.116v-4.486h.973zm1.824 4.728v-1.71c0-.545-.851-.682-.851-.99v-1.568c0-.005 0-.121.116-.121.117 0 .112.121.112.121v1.199h.608v-1.194c0-.05-.025-.5-.775-.5-.745 0-.715.566-.715.566v1.694c0 .475.851.516.851.96v1.609c0 .005 0 .121-.116.121-.117 0-.111-.121-.111-.121v-1.24h-.609v1.235c0 .05.026.5.776.5.745.006.714-.56.714-.56zm1.5-4.728v5.27h-.471v-2.433h-.234v2.433h-.47v-5.27h.47v2.423h.234v-2.423h.47z" fill="#000"/></g></g><rect x="12.3" y="6.975" width="31.576" height="22.383" rx="2.833" stroke="#D8D8D8" stroke-width=".6"/><path d="M-14.754 16.503l-10.099 3.61-2.54.068a1.55 1.55 0 00-1.51 1.55v1.33l-.079 1.823-.046.047c-.387.389-.59.923-.56 1.47l.167 3.083 1.005.964c1.083 1.038 2.528 1.588 4.025 1.68 2.086.126 2.273.376 10.028-.062h20.53l18.292.36a2.344 2.344 0 001.57-.563l.07-.06a4.488 4.488 0 001.57-3.392v-.158a1.881 1.881 0 00-.595-1.38l-.18-.93-.188-1.839a.886.886 0 00-.352-.62 11.523 11.523 0 00-5.351-2.184l-7.475-1.008a1.798 1.798 0 01-.624-.205 37.678 37.678 0 00-17.41-4.648l-3.347-.065a19.38 19.38 0 00-6.901 1.129z" fill="url(#paint1_linear_73_11387)" stroke="#5E5E5E" stroke-width=".2"/><circle cx="5.288" cy="5.288" r="5.288" transform="matrix(-1 0 0 1 23.852 23.806)" fill="url(#paint2_linear_73_11387)"/><circle cx="3.63" cy="3.63" r="3.63" transform="scale(-1 1) rotate(-15 89.242 100.667)" fill="url(#paint3_linear_73_11387)"/><path d="M-5.638 16.407l1.206-.002a30.317 30.317 0 019.887 1.647l1.71.588 2.502 1.158 1.578.725a.388.388 0 01-.081.731l-3.1.657c-.14.03-.282.043-.424.042l-19.985-.226a1.938 1.938 0 01-1.082-.346l-2.464-1.708a.618.618 0 01.097-1.07 24.706 24.706 0 0110.156-2.196z" fill="url(#paint4_linear_73_11387)"/><path d="M21.683 23.413l5.036.811.15 1.454-2.561-.049a1.938 1.938 0 01-1.265-.502l-1.521-1.38c-.143-.13-.03-.365.16-.334z" fill="url(#paint5_linear_73_11387)"/></g><defs><linearGradient id="paint0_linear_73_11387" x1="37.155" y1="34.21" x2="15.795" y2="38.347" gradientUnits="userSpaceOnUse"><stop offset=".271" stop-color="#7E7E7E"/><stop offset="1" stop-color="#D9D9D9" stop-opacity="0"/></linearGradient><linearGradient id="paint1_linear_73_11387" x1="-23.797" y1="8.488" x2="-23.675" y2="30.816" gradientUnits="userSpaceOnUse"><stop stop-color="#B1B1B1"/><stop offset=".365" stop-color="#979797"/><stop offset="1" stop-color="#717171"/></linearGradient><linearGradient id="paint2_linear_73_11387" x1="7.346" y1="7.033" x2="10.577" y2="1.46" gradientUnits="userSpaceOnUse"><stop stop-color="#222"/><stop offset="1" stop-color="#5B5B5B"/></linearGradient><linearGradient id="paint3_linear_73_11387" x1="-2.262" y1="8.61" x2="5.489" y2="-.496" gradientUnits="userSpaceOnUse"><stop stop-color="#585858"/><stop offset="1" stop-color="#EBEBEB"/></linearGradient><linearGradient id="paint4_linear_73_11387" x1="-10.812" y1="24.367" x2="-10.812" y2="14.197" gradientUnits="userSpaceOnUse"><stop offset=".472" stop-color="#222"/><stop offset="1" stop-color="#7D7D7D"/></linearGradient><linearGradient id="paint5_linear_73_11387" x1="25.603" y1="22.241" x2="24.643" y2="32.247" gradientUnits="userSpaceOnUse"><stop stop-color="#fff"/><stop offset="1" stop-color="#8F8F8F"/></linearGradient><clipPath id="clip0_73_11387"><path fill="#fff" transform="translate(0 .5)" d="M0 0h40v40H0z"/></clipPath><clipPath id="clip1_73_11387"><rect x="12" y="6.675" width="32.176" height="22.983" rx="3.133" fill="#fff"/></clipPath><clipPath id="clip2_73_11387"><path fill="#fff" transform="translate(14.426 9.372)" d="M0 0h17.618v8H0z"/></clipPath><filter id="filter0_i_73_11387" x="-2" y=".5" width="42" height="40" filterUnits="userSpaceOnUse" color-interpolation-filters="sRGB"><feFlood flood-opacity="0" result="BackgroundImageFix"/><feBlend in="SourceGraphic" in2="BackgroundImageFix" result="shape"/><feColorMatrix in="SourceAlpha" values="0 0 0 0 0 0 0 0 0 0 0 0 0 0 0 0 0 0 127 0" result="hardAlpha"/><feOffset dx="-2"/><feGaussianBlur stdDeviation="1.5"/><feComposite in2="hardAlpha" operator="arithmetic" k2="-1" k3="1"/><feColorMatrix values="0 0 0 0 0 0 0 0 0 0 0 0 0 0 0 0 0 0 0.06 0"/><feBlend in2="shape" result="effect1_innerShadow_73_11387"/></filter></defs></svg>