<svg width="125" height="64" fill="none" xmlns="http://www.w3.org/2000/svg"><g clip-path="url(#clip0_2001_1640)"><path d="M4.484 54.348c-1.29 0-2.396-.37-3.256-1.107C.43 52.503 0 51.52 0 50.29c0-1.291.491-2.275 1.474-2.951.983-.676 2.089-.984 3.317-.984 1.229 0 2.211.185 3.133.615v-.184c0-.861-.307-1.414-.983-1.66a5.784 5.784 0 00-1.843-.308c-1.29 0-2.518.308-3.562.923v-3.382c1.228-.615 2.764-.922 4.607-.922 1.78 0 3.255.43 4.36 1.353 1.106.86 1.66 2.09 1.66 3.565v3.69c0 .43.245.675.736.675.307 0 .553-.061.676-.123v3.013c-.553.43-1.29.615-2.15.615-1.474 0-2.457-.492-3.01-1.414-1.044 1.045-2.334 1.537-3.931 1.537zm1.413-2.828c.86 0 1.535-.37 1.965-1.046v-1.29c-.491-.37-1.044-.554-1.78-.554-.554 0-.984.123-1.352.43a1.208 1.208 0 00-.553 1.046c0 .43.184.737.491.983s.737.43 1.229.43zm14.557 2.828c-2.272 0-3.992-.37-5.16-1.107v-3.566c.492.37 1.23.677 2.15.922.86.246 1.843.37 2.888.37.982 0 1.474-.185 1.474-.615 0-.246-.184-.43-.553-.554l-.553-.184c-.123-.062-.675-.185-1.72-.43-1.413-.43-2.395-.861-2.948-1.353-.553-.492-.86-1.353-.86-2.46 0-1.229.491-2.151 1.474-2.889.983-.676 2.396-1.045 4.116-1.045 1.78 0 3.316.369 4.606 1.168v3.504c-1.412-.86-2.886-1.352-4.484-1.352-.921 0-1.35.184-1.35.615 0 .246.183.43.552.553l.553.184c.123.062.43.123.86.185.43.123.675.123.737.184 1.29.308 2.273.8 2.887 1.414.614.615.921 1.414.921 2.521 0 1.168-.491 2.152-1.535 2.89-.983.676-2.335 1.045-4.055 1.045zm12.47 0c-2.273 0-3.993-.37-5.16-1.107v-3.566c.491.37 1.229.677 2.15.922.86.246 1.843.37 2.887.37.983 0 1.474-.185 1.474-.615 0-.246-.184-.43-.553-.554l-.553-.123c-.122-.061-.675-.184-1.72-.43-1.412-.43-2.395-.86-2.948-1.353-.553-.491-.86-1.352-.86-2.459 0-1.23.492-2.152 1.474-2.89.983-.676 2.396-1.044 4.116-1.044 1.781 0 3.317.368 4.607 1.168v3.442c-1.413-.86-2.887-1.352-4.484-1.352-.922 0-1.352.184-1.352.615 0 .246.185.43.553.553l.614.184c.123.062.43.123.86.185.43.123.676.123.737.184 1.29.308 2.273.8 2.887 1.414.615.615.922 1.414.922 2.521 0 1.168-.492 2.152-1.536 2.89-1.044.676-2.395 1.045-4.115 1.045zM42.936 40.7c-.676 0-1.228-.247-1.72-.738-.491-.492-.737-1.046-.737-1.722 0-.676.246-1.29.737-1.721.492-.43 1.044-.738 1.72-.738.676 0 1.29.246 1.72.738.43.492.737 1.045.737 1.721 0 .676-.246 1.291-.737 1.722-.492.43-1.044.737-1.72.737zm2.15 13.34h-4.238V41.806h4.238V54.04zm7.801.308c-2.273 0-3.993-.37-5.16-1.107v-3.566c.492.37 1.229.677 2.15.922.86.246 1.843.37 2.887.37.983 0 1.474-.185 1.474-.615 0-.246-.184-.43-.552-.554l-.553-.184c-.123-.062-.676-.185-1.72-.43-1.413-.43-2.396-.861-2.949-1.353-.552-.492-.86-1.353-.86-2.46 0-1.229.492-2.151 1.475-2.889.983-.676 2.395-1.045 4.115-1.045 1.781 0 3.317.369 4.607 1.168v3.504c-1.413-.86-2.887-1.352-4.484-1.352-.921 0-1.351.184-1.351.615 0 .246.184.43.553.553l.552.184c.123.062.43.123.86.185.43.123.676.123.737.184 1.29.308 2.273.8 2.887 1.414.615.615.922 1.414.922 2.521 0 1.168-.492 2.152-1.536 2.89-.983.676-2.334 1.045-4.054 1.045zm13.023 0c-1.29 0-2.335-.369-3.072-1.045-.799-.676-1.167-1.66-1.167-2.951v-5.164h-2.15v-3.382h2.15v-3.135h4.238v3.135h3.133v3.443h-3.133v3.935c0 .553.123.922.307 1.106.246.246.553.308 1.106.308s1.167-.123 1.659-.43v3.38c-.676.554-1.72.8-3.072.8zm9.029 0c-1.29 0-2.396-.37-3.256-1.107-.798-.738-1.228-1.721-1.228-2.951 0-1.291.491-2.275 1.474-2.951.983-.676 2.088-.984 3.317-.984 1.228 0 2.211.185 3.132.615v-.184c0-.861-.307-1.414-.982-1.66a5.784 5.784 0 00-1.843-.308c-1.29 0-2.519.308-3.563.923v-3.382c1.229-.615 2.764-.922 4.607-.922 1.781 0 3.256.43 4.361 1.353 1.106.86 1.659 2.09 1.659 3.565v3.69c0 .43.245.675.737.675.307 0 .553-.061.675-.123v3.013c-.552.43-1.29.615-2.15.615-1.474 0-2.456-.492-3.01-1.414-.982 1.045-2.333 1.537-3.93 1.537zm1.412-2.828c.86 0 1.536-.37 1.966-1.046v-1.29c-.491-.37-1.044-.554-1.781-.554-.553 0-.983.123-1.352.43a1.208 1.208 0 00-.552 1.046c0 .43.184.737.49.983.37.246.738.43 1.23.43zm14.129-5.165v7.685h-4.24V41.806h4.24v1.352c1.043-1.106 2.272-1.66 3.685-1.66 1.35 0 2.395.43 3.194 1.353.798.922 1.167 2.152 1.167 3.689v7.5h-4.239v-6.7c0-.677-.184-1.23-.491-1.538-.307-.307-.737-.492-1.29-.492-.86 0-1.535.37-2.027 1.045zm16.707 7.993c-1.781 0-3.378-.554-4.73-1.722-1.351-1.168-2.027-2.705-2.027-4.734s.676-3.566 2.027-4.734c1.352-1.168 2.949-1.721 4.73-1.721 1.351 0 2.58.246 3.624.738v3.566a7.254 7.254 0 00-2.948-.615c-.922 0-1.72.246-2.335.738-.614.491-.921 1.168-.921 2.028 0 .861.307 1.537.921 2.03.615.491 1.352.737 2.335.737 1.167 0 2.211-.246 3.132-.738v3.566c-1.167.615-2.457.86-3.808.86zm12.285 0c-1.904 0-3.501-.554-4.853-1.722-1.29-1.168-1.965-2.766-1.965-4.734 0-1.844.614-3.32 1.781-4.61 1.167-1.23 2.764-1.845 4.73-1.845 1.781 0 3.194.615 4.238 1.783 1.106 1.168 1.659 2.705 1.659 4.61v1.046h-8.17c.184.615.614 1.107 1.229 1.414.614.307 1.412.492 2.334.492 1.351 0 2.641-.369 3.931-1.045v3.258c-1.229.922-2.887 1.353-4.914 1.353zm-2.641-7.624h4.054c0-.615-.185-1.106-.553-1.475a1.807 1.807 0 00-1.351-.554c-.553 0-1.045.185-1.413.554-.43.307-.676.799-.737 1.475z" fill="#fff"/><path fill-rule="evenodd" clip-rule="evenodd" d="M51.658 34.306c.185-.554.246-1.23.246-1.845 0-1.844-.737-3.381-2.15-4.55-1.412-1.168-3.317-1.782-5.712-1.782-2.887 0-5.467.553-7.74 1.66V19.55l10.381-8.976H30.221V0h32.064v9.468l-9.52 8.422c2.579.677 5.097 2.03 7.493 4.12 2.887 2.52 4.361 5.963 4.361 10.39 0 .614 0 1.29-.061 1.844h-12.9v.062z" fill="#AC2A21"/><path fill-rule="evenodd" clip-rule="evenodd" d="M76.966 22.378l-2.642-6.762-2.641 6.762h5.282zm-16.954-2.705L68.243 0h12.224l14.312 34.306H81.634l-.799-2.09H66.278c-.062-4.489-1.475-8.485-4.914-11.436-.43-.369-.922-.738-1.352-1.107z" fill="#AC2A21"/><path d="M16.032 59.82L18.059 64h-.737l-.43-.922h-1.72l-.43.86h-.737l2.027-4.119zm-.553 2.581h1.167l-.553-1.23-.614 1.23zm3.133-2.581h1.474c.737 0 1.229.491 1.229 1.106 0 .369-.123.615-.369.8.368.184.676.491.676.983 0 .738-.553 1.168-1.352 1.168h-1.597v-4.058h-.061zm1.351 1.72c.43 0 .614-.245.614-.553 0-.307-.184-.553-.614-.553h-.675v1.107h.675zm.246 1.784c.491 0 .675-.246.675-.615s-.245-.615-.675-.615h-.921v1.168h.92v.062zm2.457-2.828h-1.044v-.677h2.825v.677h-1.105v3.442h-.676v-3.442zm2.027 1.414c0-1.168.921-2.09 2.088-2.09s2.089.922 2.089 2.09c0 1.168-.922 2.09-2.089 2.09-1.105 0-2.088-.922-2.088-2.09zm3.563 0c0-.8-.615-1.476-1.413-1.476-.799 0-1.413.615-1.413 1.476 0 .86.614 1.475 1.413 1.475.798 0 1.413-.676 1.413-1.475zm1.413-2.09l2.026 2.151 2.027-2.152V64h-.675v-2.52l-1.351 1.476-1.352-1.476V64h-.675v-4.18zm4.791 2.09c0-1.168.92-2.09 2.088-2.09 1.167 0 2.088.922 2.088 2.09 0 1.168-.921 2.09-2.088 2.09a2.072 2.072 0 01-2.089-2.09zm3.5 0c0-.8-.614-1.476-1.412-1.476-.799 0-1.413.615-1.413 1.476 0 .86.614 1.475 1.413 1.475.798 0 1.413-.676 1.413-1.475zm1.966-1.414h-1.044v-.677h2.825v.677h-1.044v3.442h-.737v-3.442zM42.26 64v-4.18h.676v2.643l2.825-2.644V64h-.675v-2.643L42.26 64zm4.484-4.18h1.474c.737 0 1.229.491 1.229 1.106 0 .369-.123.615-.369.8.369.184.676.491.676.983 0 .738-.553 1.168-1.351 1.168h-1.597v-4.058h-.062zm1.352 1.72c.43 0 .614-.245.614-.553 0-.307-.184-.553-.614-.553h-.676v1.107h.675zm.184 1.784c.491 0 .675-.246.675-.615s-.245-.615-.675-.615h-.922v1.168h.922v.062zm5.037-3.504l1.966 4.118h-.738l-.43-.922h-1.72l-.43.922h-.737l2.089-4.119zm-.614 2.581h1.167l-.553-1.23-.614 1.23zm2.764-.491c0-1.168.921-2.09 2.088-2.09.553 0 1.106.184 1.474.614l-.43.43a1.481 1.481 0 00-1.044-.43c-.798 0-1.413.615-1.413 1.476 0 .86.615 1.475 1.413 1.475.43 0 .737-.184 1.044-.43l.43.492c-.368.368-.86.614-1.474.614-1.105-.061-2.088-.983-2.088-2.151zm3.808 0c0-1.168.922-2.09 2.089-2.09.553 0 1.105.184 1.474.614l-.43.492a1.481 1.481 0 00-1.044-.43c-.799 0-1.413.614-1.413 1.475 0 .86.614 1.476 1.413 1.476.43 0 .737-.185 1.044-.43l.43.491c-.369.369-.86.615-1.474.615-1.167-.123-2.089-1.045-2.089-2.213zM63.514 64v-4.18h.675v2.643l2.826-2.644V64h-.676v-2.643L63.514 64zm4.238-2.09c0-1.168.921-2.09 2.088-2.09.553 0 1.106.184 1.475.614l-.43.492a1.48 1.48 0 00-1.045-.43c-.798 0-1.412.614-1.412 1.475 0 .86.614 1.476 1.412 1.476.43 0 .737-.185 1.045-.43l.43.491c-.369.369-.86.615-1.475.615-1.167-.123-2.088-1.045-2.088-2.213zm4.914-1.414h-1.044v-.677h2.826v.677h-1.045v3.442h-.675v-3.442h-.062zm3.133-.676L77.825 64h-.737l-.43-.922h-1.72l-.43.922h-.736l2.026-4.18zm-.553 2.581h1.167l-.553-1.23-.614 1.23zm3.132-2.581h.676v1.72h2.027v-1.72h.676v4.118h-.676v-1.782h-2.027v1.782h-.676V59.82zm4.116 2.09c0-1.168.921-2.09 2.088-2.09.553 0 1.106.184 1.474.614l-.43.492a1.48 1.48 0 00-1.044-.43c-.798 0-1.413.614-1.413 1.475 0 .86.615 1.476 1.413 1.476.43 0 .737-.185 1.044-.43l.43.491c-.368.369-.86.615-1.474.615-1.106-.123-2.088-1.045-2.088-2.213zm7.186-2.09L91.709 64h-.799l-.43-.922h-1.72l-.43.922h-.737l2.089-4.18zm-.614 2.581h1.168l-.553-1.23-.614 1.23zm4.73-1.168L92.506 64h-.737l2.027-4.18L95.823 64h-.737l-1.29-2.767zm3.87.185c.86 0 1.413.492 1.413 1.29 0 .739-.553 1.292-1.413 1.292h-1.352v-4.12h.676v1.538h.676zm-.614 1.906h.675c.492 0 .799-.246.799-.677 0-.43-.307-.676-.799-.676h-.675v1.353zm4.791.614v-1.475h-.491l-1.045 1.475h-.798l1.105-1.598a.991.991 0 01-.43-.246c-.245-.246-.43-.553-.43-.922 0-.8.615-1.291 1.413-1.291h1.29V64h-.614v-.062zm0-3.504h-.553c-.491 0-.798.246-.798.676 0 .43.307.677.798.677h.553v-1.353zm1.658-.614h.676v1.72h2.027v-1.72h.675v4.118h-.675v-1.782h-2.027v1.782h-.676V59.82zm4.116 2.09c0-1.168.921-2.09 2.088-2.09.553 0 1.106.184 1.474.614l-.43.492a1.479 1.479 0 00-1.044-.43c-.798 0-1.413.614-1.413 1.475 0 .86.615 1.476 1.413 1.476.43 0 .737-.185 1.044-.43l.43.491c-.368.369-.86.615-1.474.615-1.167-.123-2.088-1.045-2.088-2.213z" fill="#fff"/></g><defs><clipPath id="clip0_2001_1640"><path fill="#fff" d="M0 0h125v64H0z"/></clipPath></defs></svg>